<?xml version="1.0" encoding="utf-8"?>
<!-- Generator: Adobe Illustrator 24.3.0, SVG Export Plug-In . SVG Version: 6.00 Build 0)  -->
<svg version="1.1" id="Layer_1" xmlns="http://www.w3.org/2000/svg" xmlns:xlink="http://www.w3.org/1999/xlink" x="0px" y="0px"
	 viewBox="0 0 792 612" style="enable-background:new 0 0 792 612;" xml:space="preserve">
<g>
	<path d="M438.96,376.9c-6.48,0-12.98,0.34-19.42-0.16c-2.61-0.2-6.53-1.69-7.23-3.57c-0.84-2.27,0.24-6.32,1.97-8.31
		c10.22-11.78,20.87-23.19,31.39-34.71c4.54-4.97,4.53-7.5-0.16-12.25c-25.19-25.53-50.46-51-75.47-76.71
		c-2.16-2.22-3.76-5.96-3.85-9.05c-0.41-13.94-0.38-27.91,0-41.85c0.07-2.68,1.71-6.23,3.81-7.71c3.06-2.16,6.03,0.07,8.58,2.69
		c29.07,29.87,58.23,59.64,87.35,89.45c13.11,13.42,26.21,26.86,39.3,40.3c5.11,5.24,4.98,13.3-0.13,18.58
		c-12.93,13.36-25.7,26.87-38.81,40.05c-1.85,1.86-5.18,2.91-7.91,3.1C451.94,377.2,445.44,376.9,438.96,376.9z"/>
	<path d="M313.32,295.63c0-23.75,0.07-47.5-0.06-71.26c-0.02-4.3,1.25-7.55,4.35-10.57c9.61-9.41,18.99-19.06,28.48-28.59
		c2.31-2.32,4.46-5.3,8.44-3.79c4.09,1.55,4.1,5.13,4.08,8.73c-0.19,44.01-0.36,88.01-0.52,132.02c-0.03,7.85,1.37,9.21,9.24,9.22
		c17.77,0.01,35.55,0.03,53.32-0.02c3.27-0.01,6.53-0.01,7.93,3.64c1.34,3.5-0.61,5.96-3.04,8.26
		c-10.74,10.14-21.33,20.44-32.21,30.42c-1.87,1.72-4.9,3.04-7.41,3.07c-21.42,0.24-42.85,0.18-64.28,0.11
		c-6.3-0.02-8.28-2.11-8.29-8.48C313.3,344.13,313.32,319.88,313.32,295.63z"/>
	<path d="M508.7,237.76c0,15.6-0.05,31.21,0.04,46.81c0.02,3.36-0.3,6.53-3.82,7.84c-3.27,1.22-5.97-0.08-8.43-2.59
		c-9.88-10.07-20.03-19.88-29.79-30.07c-1.85-1.93-3.23-5.12-3.34-7.78c-0.39-9.94-0.34-19.92-0.02-29.87
		c0.08-2.39,1.25-5.28,2.9-6.99c10.18-10.47,20.52-20.79,31.13-30.83c1.69-1.6,5.45-2.69,7.38-1.89c1.9,0.78,3.74,4.24,3.79,6.56
		C508.85,205.22,508.7,221.49,508.7,237.76z"/>
</g>
</svg>
